<svg width="40" height="40" viewBox="0 0 40 40" fill="none" xmlns="http://www.w3.org/2000/svg">
<rect width="40" height="40" rx="10" fill="white"/>
<path d="M25.8334 15.8334H23.3334V15.0001C23.3334 14.116 22.9822 13.2682 22.3571 12.6431C21.7319 12.0179 20.8841 11.6667 20 11.6667C19.116 11.6667 18.2681 12.0179 17.643 12.6431C17.0179 13.2682 16.6667 14.116 16.6667 15.0001V15.8334H14.1667C13.9457 15.8334 13.7337 15.9212 13.5775 16.0775C13.4212 16.2338 13.3334 16.4457 13.3334 16.6667V25.8334C13.3334 26.4965 13.5968 27.1323 14.0656 27.6012C14.5344 28.07 15.1703 28.3334 15.8334 28.3334H24.1667C24.8297 28.3334 25.4656 28.07 25.9345 27.6012C26.4033 27.1323 26.6667 26.4965 26.6667 25.8334V16.6667C26.6667 16.4457 26.5789 16.2338 26.4226 16.0775C26.2663 15.9212 26.0544 15.8334 25.8334 15.8334ZM18.3334 15.0001C18.3334 14.5581 18.509 14.1341 18.8215 13.8216C19.1341 13.509 19.558 13.3334 20 13.3334C20.4421 13.3334 20.866 13.509 21.1786 13.8216C21.4911 14.1341 21.6667 14.5581 21.6667 15.0001V15.8334H18.3334V15.0001ZM25 25.8334C25 26.0544 24.9122 26.2664 24.756 26.4227C24.5997 26.579 24.3877 26.6667 24.1667 26.6667H15.8334C15.6124 26.6667 15.4004 26.579 15.2441 26.4227C15.0878 26.2664 15 26.0544 15 25.8334V17.5001H16.6667V18.3334C16.6667 18.5544 16.7545 18.7664 16.9108 18.9227C17.0671 19.079 17.279 19.1667 17.5 19.1667C17.7211 19.1667 17.933 19.079 18.0893 18.9227C18.2456 18.7664 18.3334 18.5544 18.3334 18.3334V17.5001H21.6667V18.3334C21.6667 18.5544 21.7545 18.7664 21.9108 18.9227C22.0671 19.079 22.279 19.1667 22.5 19.1667C22.7211 19.1667 22.933 19.079 23.0893 18.9227C23.2456 18.7664 23.3334 18.5544 23.3334 18.3334V17.5001H25V25.8334Z" fill="#2D74FF"/>
</svg>
